<?xml version="1.0" encoding="UTF-8" standalone="no"?>
<!DOCTYPE svg PUBLIC "-//W3C//DTD SVG 1.1//EN"
 "http://www.w3.org/Graphics/SVG/1.1/DTD/svg11.dtd">
<!-- Generated by graphviz version 2.43.0 (0)
 -->
<!-- Title: pluginIcon Pages: 1 -->
<svg width="215pt" height="188pt"
 viewBox="0.00 0.00 214.80 187.80" xmlns="http://www.w3.org/2000/svg" xmlns:xlink="http://www.w3.org/1999/xlink">
<g id="graph0" class="graph" transform="scale(1 1) rotate(0) translate(14.4 173.4)">
<title>pluginIcon</title>
<!-- A -->
<g id="node1" class="node">
<title>A</title>
<ellipse fill="#4a90e2" stroke="black" stroke-width="4" cx="93" cy="-144.5" rx="25" ry="14.5"/>
<text text-anchor="middle" x="93" y="-142" font-family="sans-serif" font-size="10.00">A</text>
</g>
<!-- B -->
<g id="node2" class="node">
<title>B</title>
<ellipse fill="#50e3c2" stroke="black" stroke-width="4" cx="25" cy="-79.5" rx="25" ry="14.5"/>
<text text-anchor="middle" x="25" y="-77" font-family="sans-serif" font-size="10.00">B</text>
</g>
<!-- A&#45;&#45;B -->
<g id="edge1" class="edge">
<title>A&#45;&#45;B</title>
<path fill="none" stroke="#888888" stroke-width="2" d="M80.21,-131.65C68.05,-120.39 49.87,-103.54 37.73,-92.3"/>
</g>
<!-- D -->
<g id="node4" class="node">
<title>D</title>
<ellipse fill="#d0021b" stroke="black" stroke-width="4" cx="93" cy="-79.5" rx="25" ry="14.5"/>
<text text-anchor="middle" x="93" y="-77" font-family="sans-serif" font-size="10.00">D</text>
</g>
<!-- A&#45;&#45;D -->
<g id="edge2" class="edge">
<title>A&#45;&#45;D</title>
<path fill="none" stroke="#888888" stroke-width="2" d="M93,-129.83C93,-119.26 93,-104.7 93,-94.14"/>
</g>
<!-- E -->
<g id="node5" class="node">
<title>E</title>
<ellipse fill="#c0c0c0" stroke="black" stroke-width="4" cx="161" cy="-79.5" rx="25" ry="14.5"/>
<text text-anchor="middle" x="161" y="-77" font-family="sans-serif" font-size="10.00">E</text>
</g>
<!-- A&#45;&#45;E -->
<g id="edge3" class="edge">
<title>A&#45;&#45;E</title>
<path fill="none" stroke="#888888" stroke-width="2" d="M105.79,-131.65C117.95,-120.39 136.13,-103.54 148.27,-92.3"/>
</g>
<!-- C -->
<g id="node3" class="node">
<title>C</title>
<ellipse fill="#f5a623" stroke="black" stroke-width="4" cx="93" cy="-14.5" rx="25" ry="14.5"/>
<text text-anchor="middle" x="93" y="-12" font-family="sans-serif" font-size="10.00">C</text>
</g>
<!-- B&#45;&#45;C -->
<g id="edge4" class="edge">
<title>B&#45;&#45;C</title>
<path fill="none" stroke="#888888" stroke-width="2" d="M37.79,-66.65C49.95,-55.39 68.13,-38.54 80.27,-27.3"/>
</g>
<!-- D&#45;&#45;C -->
<g id="edge5" class="edge">
<title>D&#45;&#45;C</title>
<path fill="none" stroke="#888888" stroke-width="2" d="M93,-64.83C93,-54.26 93,-39.7 93,-29.14"/>
</g>
<!-- E&#45;&#45;C -->
<g id="edge6" class="edge">
<title>E&#45;&#45;C</title>
<path fill="none" stroke="#888888" stroke-width="2" d="M148.21,-66.65C136.05,-55.39 117.87,-38.54 105.73,-27.3"/>
</g>
</g>
</svg>
